<?xml version="1.0" standalone="no"?>
<!DOCTYPE svg PUBLIC "-//W3C//DTD SVG 20010904//EN"
 "http://www.w3.org/TR/2001/REC-SVG-20010904/DTD/svg10.dtd">
<svg version="1.0" xmlns="http://www.w3.org/2000/svg"
 width="457.000000pt" height="160.000000pt" viewBox="0 0 457.000000 160.000000"
 preserveAspectRatio="xMidYMid meet">

<g transform="translate(0.000000,160.000000) scale(0.100000,-0.100000)"
fill="crimson" stroke="none">
<path d="M495 1376 c-109 -27 -208 -122 -241 -232 -22 -74 -21 -666 1 -742 20
-67 86 -148 154 -189 80 -48 147 -55 483 -51 246 4 300 7 338 21 109 42 198
142 220 247 8 38 11 158 8 380 -3 315 -4 326 -26 372 -37 74 -96 134 -170 170
l-67 33 -325 2 c-233 1 -339 -2 -375 -11z m662 -349 c50 -26 64 -51 74 -129
12 -87 2 -270 -16 -315 -22 -52 -62 -65 -220 -74 -157 -9 -370 -2 -429 13 -22
5 -52 23 -67 39 -23 25 -28 42 -35 106 -9 99 0 270 16 305 31 66 104 79 432
73 165 -3 223 -7 245 -18z"/>
<path d="M780 776 l0 -105 89 51 c50 29 88 55 85 59 -4 7 -140 86 -166 97 -5
2 -8 -44 -8 -102z"/>
</g>
</svg>
